<?xml version="1.0" ?><svg viewBox="0 0 69.45 69.45" xmlns="http://www.w3.org/2000/svg"><defs><style>.cls-1{fill:#64a6dd;}.cls-2{fill:#fff;}</style></defs><title/><g data-name="Layer 2" id="Layer_2"><g data-name="Layer 1" id="Layer_1-2"><circle class="cls-1" cx="34.72" cy="34.72" r="34.72"/><path class="cls-2" d="M17.06,45.82a20.5,20.5,0,0,0,11.11,3.26c13.46,0,21.06-11.37,20.6-21.56a14.67,14.67,0,0,0,3.62-3.75,14.9,14.9,0,0,1-4.16,1.14,7.3,7.3,0,0,0,3.18-4,14.64,14.64,0,0,1-4.6,1.76,7.25,7.25,0,0,0-12.35,6.61,20.54,20.54,0,0,1-14.94-7.58,7.26,7.26,0,0,0,2.24,9.68,7.12,7.12,0,0,1-3.28-.91,7.26,7.26,0,0,0,5.81,7.2,7.32,7.32,0,0,1-3.27.13,7.25,7.25,0,0,0,6.77,5A14.55,14.55,0,0,1,17.06,45.82Z"/></g></g></svg>