<svg width="127" height="30" viewBox="0 0 127 30" fill="none" xmlns="http://www.w3.org/2000/svg">
<path fill-rule="evenodd" clip-rule="evenodd" d="M75.1969 8.28671C74.5869 8.56275 74.2059 9.1819 74.2345 9.85085L74.2545 9.86085C74.2597 10.2834 74.434 10.6863 74.7384 10.9795C75.0429 11.2726 75.452 11.4316 75.8745 11.4208C76.5441 11.4202 77.146 11.0127 77.3952 10.3912C77.6444 9.76974 77.4908 9.0592 77.0071 8.59619C76.5234 8.13317 75.8069 8.01067 75.1969 8.28671ZM39.2045 9.03085H35.9945V22.0308H39.2045V9.03085ZM45.4845 11.9908C42.4845 11.9908 40.4845 13.9208 40.4845 17.1408C40.4845 20.4308 42.4145 22.3108 45.4845 22.3108C48.5545 22.3108 50.4845 20.3608 50.4845 17.1408C50.4845 13.9208 48.4845 11.9908 45.4845 11.9908ZM47.3045 17.1408C47.3045 15.3708 46.6145 14.3308 45.5145 14.3308C44.4145 14.3308 43.7345 15.3308 43.7345 17.1408C43.7345 18.9508 44.4145 19.9408 45.5145 19.9408C46.6145 19.9408 47.3245 18.9508 47.3245 17.1508L47.3045 17.1408ZM54.8645 22.7008H51.7645L51.7845 22.7108C51.9645 24.5008 53.7445 25.7708 56.5245 25.7808C59.5845 25.7808 61.6645 24.3108 61.6645 21.9608V12.2208H58.4845V13.8336C57.9416 12.7466 56.8014 12.0752 55.5745 12.1408C53.0645 12.1408 51.5745 14.0608 51.5745 17.1408C51.5745 20.2208 53.1345 22.0108 55.4845 22.0108C56.7424 22.103 57.9277 21.4166 58.4745 20.2818V22.0608C58.4745 23.0408 57.8345 23.7008 56.6045 23.7008C55.8659 23.7955 55.1545 23.3867 54.8645 22.7008ZM58.4845 17.1408C58.4845 15.5708 57.7645 14.5808 56.6245 14.5808C55.4845 14.5808 54.7845 15.5808 54.7845 17.1408C54.7845 18.7008 55.4745 19.6208 56.6245 19.6208C57.7745 19.6208 58.4845 18.7708 58.4845 17.1408ZM67.9345 11.9908C64.9345 11.9908 62.9345 13.9208 62.9345 17.1408H62.9545C62.9545 20.4308 64.8745 22.3108 67.9345 22.3108C70.9945 22.3108 72.9345 20.3608 72.9345 17.1408C72.9345 13.9208 70.9345 11.9908 67.9345 11.9908ZM69.7545 17.1408C69.7545 15.3708 69.0545 14.3308 67.9645 14.3308C66.8745 14.3308 66.1845 15.3308 66.1845 17.1408C66.1845 18.9508 66.8645 19.9408 67.9645 19.9408C69.0645 19.9408 69.7745 18.9508 69.7745 17.1508L69.7545 17.1408ZM74.2345 12.2108H77.4845V22.0708H74.2845L74.2345 12.2108ZM85.2845 22.2108C87.7345 22.2108 89.1745 20.3508 89.1745 17.1408L89.2345 17.1508C89.2345 13.9308 87.7845 12.0808 85.2645 12.1008C83.9641 12.039 82.7644 12.7988 82.2645 14.0008H82.2045V12.2408H79.0145V25.2408H82.2245V20.3808H82.2845C82.802 21.5595 83.9997 22.2901 85.2845 22.2108ZM85.9045 17.1408C85.9045 15.5808 85.1745 14.5708 84.0445 14.5708C82.9145 14.5708 82.2045 15.5708 82.1945 17.1408C82.1845 18.7108 82.9145 19.7008 84.0445 19.7008C85.1745 19.7008 85.9645 18.7708 85.9645 17.1508L85.9045 17.1408ZM99.0345 15.2908C99.0145 13.2508 97.3445 11.9808 94.6545 11.9808L94.7145 11.9908C92.0045 11.9908 90.3245 13.2408 90.2645 15.2008C90.2645 16.7108 91.2745 17.7208 93.2045 18.1308L95.0645 18.5208C95.8345 18.6808 96.1345 18.7708 96.1345 19.3008C96.1345 19.8308 95.6945 20.1308 94.7545 20.1308C93.8145 20.1308 93.2345 19.7008 93.1445 18.9708H90.0345C90.1645 20.9808 91.9545 22.3008 94.7045 22.3008C97.4545 22.3008 99.3045 20.9408 99.3045 18.9408C99.3045 17.4508 98.5045 16.6508 96.5045 16.2308L94.4445 15.8108C93.7045 15.6608 93.3345 15.5008 93.3345 14.9908C93.3345 14.4808 93.7545 14.1408 94.6345 14.1408C95.5145 14.1408 96.1045 14.5808 96.1045 15.2908H99.0345ZM110.055 22.0608H106.945V20.2108H106.885C106.526 21.4819 105.333 22.3339 104.015 22.2608C103.037 22.2927 102.092 21.9056 101.418 21.197C100.744 20.4884 100.404 19.5257 100.485 18.5508V12.2208H103.695V17.8608C103.695 19.0208 104.305 19.6508 105.305 19.6508C105.779 19.6473 106.229 19.4382 106.538 19.0776C106.847 18.7171 106.984 18.2404 106.915 17.7708V12.2208H110.115L110.055 22.0608ZM114.725 12.2108H111.605L111.625 22.0708H114.835V16.2508C114.783 15.8415 114.91 15.4297 115.184 15.1212C115.458 14.8127 115.852 14.6376 116.265 14.6408C117.145 14.6408 117.635 15.1708 117.635 16.1708V22.0708H120.695V16.2308C120.639 15.8261 120.763 15.4174 121.034 15.1118C121.305 14.8062 121.696 14.6341 122.105 14.6408C123.015 14.6408 123.485 15.2008 123.485 16.2008V22.0708H126.715V15.3808C126.781 14.4948 126.466 13.6226 125.849 12.983C125.232 12.3434 124.372 11.9971 123.485 12.0308C122.126 11.9673 120.895 12.8249 120.485 14.1208H120.345C120.107 12.8217 118.92 11.9165 117.605 12.0308C116.304 12.0043 115.149 12.8591 114.795 14.1108H114.725V12.2108Z" fill="#696871"/>
<path fill-rule="evenodd" clip-rule="evenodd" d="M29.6445 9.88087C29.6447 5.80726 27.1447 2.15113 23.3486 0.673391C19.5525 -0.804353 15.2385 0.199264 12.4845 3.20087H0.0045166V29.5409H26.3545V17.2309C28.4462 15.36 29.6426 12.6872 29.6445 9.88087ZM24.5745 9.88087C24.5786 11.8313 23.4068 13.5919 21.606 14.3411C19.8052 15.0903 17.7304 14.6804 16.3498 13.3027C14.9692 11.9249 14.555 9.85099 15.3005 8.04865C16.0459 6.24631 17.8041 5.07087 19.7545 5.07087C22.4126 5.07086 24.569 7.22276 24.5745 9.88087ZM5.07452 24.4709H21.2845V19.6409C20.7788 19.7247 20.2672 19.7682 19.7545 19.7709C14.2947 19.7654 9.87003 15.3407 9.86452 9.88087C9.86891 9.34093 9.91909 8.80233 10.0145 8.27087H5.07452V24.4709Z" fill="#696871"/>
</svg>
