<svg width="119" height="24" viewBox="0 0 119 24" fill="none" xmlns="http://www.w3.org/2000/svg">
<path d="M38.1572 19.2047C37.5624 19.2369 36.9741 19.0678 36.4872 18.7247C36.0742 18.4185 35.8385 17.9285 35.8572 17.4147V8.1447C35.8473 8.06517 35.8747 7.98554 35.9314 7.92888C35.988 7.87221 36.0677 7.84484 36.1472 7.8547H37.8272C38.0172 7.8547 38.1072 7.9547 38.1072 8.1447V16.6947C38.1072 17.0747 38.2772 17.2647 38.6272 17.2647C38.7756 17.2708 38.924 17.254 39.0672 17.2147C39.2672 17.2147 39.3772 17.2747 39.3872 17.4547L39.5372 18.7047C39.5518 18.7784 39.5337 18.8549 39.4877 18.9143C39.4417 18.9737 39.3722 19.0103 39.2972 19.0147C38.9292 19.1362 38.5447 19.2003 38.1572 19.2047Z" fill="#696871"/>
<path fill-rule="evenodd" clip-rule="evenodd" d="M41.6072 18.1347C43.3485 19.5734 45.8659 19.5734 47.6072 18.1347V18.1247C49.1133 16.5541 49.1133 14.0754 47.6072 12.5047C45.8631 11.0739 43.3513 11.0739 41.6072 12.5047C40.0629 14.0637 40.0629 16.5758 41.6072 18.1347ZM46.0472 16.8147C45.2356 17.5499 43.9988 17.5499 43.1872 16.8147C42.4541 15.9718 42.4541 14.7176 43.1872 13.8747C43.9988 13.1396 45.2356 13.1396 46.0472 13.8747C46.7803 14.7176 46.7803 15.9718 46.0472 16.8147Z" fill="#696871"/>
<path fill-rule="evenodd" clip-rule="evenodd" d="M58.2672 11.9747C58.2672 11.7847 58.1772 11.6847 57.9872 11.6847L56.3272 11.6947C56.2493 11.6881 56.1726 11.717 56.1183 11.7732C56.064 11.8294 56.0379 11.9071 56.0472 11.9847V12.1447C55.437 11.6779 54.6852 11.4344 53.9172 11.4547C52.8637 11.4171 51.8396 11.8066 51.0772 12.5347C49.5786 14.0851 49.5786 16.5443 51.0772 18.0947C51.836 18.8295 52.8616 19.2231 53.9172 19.1847C54.6636 19.2059 55.3957 18.9771 55.9972 18.5347V19.1647C56.0176 19.628 55.8478 20.0796 55.5272 20.4147C55.1764 20.7349 54.7115 20.9007 54.2372 20.8747C53.8481 20.8825 53.4631 20.7932 53.1172 20.6147C52.8334 20.4612 52.6162 20.2084 52.5072 19.9047C52.4521 19.7697 52.3229 19.6797 52.1772 19.6747H50.4972C50.2272 19.6747 50.2272 19.7647 50.2272 19.9647C50.3679 20.7841 50.8423 21.5083 51.5372 21.9647C52.3423 22.4866 53.2884 22.7484 54.2472 22.7147C55.3088 22.7615 56.3486 22.4041 57.1572 21.7147C57.8949 21.0686 58.3026 20.1247 58.2672 19.1447V11.9747ZM55.4772 16.8147C55.1306 17.2047 54.6288 17.4208 54.1072 17.4047C53.58 17.4199 53.0725 17.2045 52.7172 16.8147C52.3585 16.4029 52.1692 15.8705 52.1872 15.3247C52.1652 14.7735 52.3589 14.2354 52.7272 13.8247C53.0817 13.4338 53.5898 13.2181 54.1172 13.2347C54.634 13.2176 55.1318 13.43 55.4772 13.8147C56.161 14.6978 56.161 15.9316 55.4772 16.8147Z" fill="#696871"/>
<path fill-rule="evenodd" clip-rule="evenodd" d="M60.8971 18.1347C62.6412 19.5656 65.153 19.5656 66.8971 18.1347V18.1247C68.4032 16.5541 68.4032 14.0754 66.8971 12.5047C65.1516 11.0778 62.6426 11.0778 60.8971 12.5047C59.3898 14.0787 59.3898 16.5608 60.8971 18.1347ZM63.9071 17.3647C63.3729 17.3812 62.8543 17.1831 62.4671 16.8147C61.7468 15.9671 61.7468 14.7224 62.4671 13.8747C62.8543 13.5064 63.3729 13.3083 63.9071 13.3247C64.4379 13.311 64.9523 13.5089 65.3371 13.8747C66.0574 14.7224 66.0574 15.9671 65.3371 16.8147C64.9523 17.1806 64.4379 17.3785 63.9071 17.3647Z" fill="#696871"/>
<path fill-rule="evenodd" clip-rule="evenodd" d="M69.7272 9.98471C70.2739 10.4633 71.0904 10.4633 71.6372 9.98471C71.8794 9.75612 72.0167 9.43778 72.0167 9.10471C72.0167 8.77165 71.8794 8.45331 71.6372 8.22471C71.0857 7.75892 70.2786 7.75892 69.7272 8.22471C69.4849 8.45331 69.3477 8.77165 69.3477 9.10471C69.3477 9.43778 69.4849 9.75612 69.7272 9.98471ZM70.1772 18.7247C70.6654 19.065 71.2527 19.2339 71.8472 19.2047C72.238 19.2011 72.6259 19.137 72.9972 19.0147C73.0722 19.0104 73.1417 18.9737 73.1877 18.9143C73.2337 18.8549 73.2518 18.7784 73.2372 18.7047L73.0872 17.4547C73.0772 17.2747 72.9672 17.2147 72.7672 17.2147C72.6204 17.2533 72.4688 17.2702 72.3172 17.2647C71.9772 17.2647 71.8072 17.0747 71.8072 16.6947V11.9747C71.8072 11.7847 71.7172 11.6847 71.5272 11.6847H69.8472C69.7676 11.6749 69.688 11.7022 69.6314 11.7589C69.5747 11.8156 69.5473 11.8952 69.5572 11.9747V17.4147C69.5396 17.926 69.7706 18.4142 70.1772 18.7247Z" fill="#696871"/>
<path fill-rule="evenodd" clip-rule="evenodd" d="M82.2771 12.5247C81.5092 11.7925 80.4773 11.4028 79.4171 11.4447C78.4914 11.4246 77.5981 11.7862 76.9471 12.4447C76.6038 11.7739 75.8878 11.3783 75.1371 11.4447C74.7691 11.438 74.403 11.499 74.0571 11.6247C73.9122 11.6668 73.8164 11.8043 73.8271 11.9547V13.1347C73.8271 13.2947 73.9371 13.3747 74.1571 13.3747H74.4871C74.6497 13.3509 74.8141 13.4053 74.9303 13.5215C75.0465 13.6378 75.101 13.8021 75.0771 13.9647V22.1647C75.0626 22.2426 75.0873 22.3225 75.1433 22.3785C75.1993 22.4345 75.2793 22.4593 75.3571 22.4447H77.0371C77.2271 22.4447 77.3271 22.3547 77.3271 22.1647V18.5547C77.9344 18.9932 78.6683 19.2214 79.4171 19.2047C80.4793 19.2475 81.5128 18.8536 82.2771 18.1147C83.7442 16.5402 83.7442 14.0993 82.2771 12.5247ZM79.2371 17.4042C78.7159 17.4042 78.2174 17.1913 77.8571 16.8147C77.4958 16.3887 77.3068 15.843 77.3271 15.2847C77.3039 14.7261 77.4932 14.1793 77.8571 13.7547C78.2174 13.3782 78.7159 13.1652 79.2371 13.1652C79.7583 13.1652 80.2568 13.3782 80.6171 13.7547C80.9955 14.172 81.1933 14.7221 81.1671 15.2847C81.19 15.8469 80.9927 16.3958 80.6171 16.8147C80.2568 17.1913 79.7583 17.4042 79.2371 17.4042Z" fill="#696871"/>
<path d="M88.0972 19.2047C87.1995 19.2416 86.3093 19.0269 85.5272 18.5847C84.8915 18.2018 84.4646 17.5504 84.3672 16.8147C84.3672 16.6147 84.4372 16.5147 84.6572 16.5147H86.1272C86.2698 16.5203 86.3972 16.6052 86.4572 16.7347C86.6672 17.2747 87.2172 17.5447 88.0972 17.5447C88.4041 17.5587 88.7098 17.4969 88.9872 17.3647C89.1822 17.2766 89.3129 17.0883 89.3272 16.8747C89.3272 16.6147 89.1672 16.4347 88.8472 16.3147C88.4676 16.1884 88.0752 16.1045 87.6772 16.0647C87.2057 16.0113 86.738 15.9278 86.2772 15.8147C85.829 15.7133 85.4215 15.4799 85.1072 15.1447C84.733 14.6842 84.5669 14.089 84.6484 13.5012C84.7299 12.9135 85.0518 12.386 85.5372 12.0447C86.258 11.5856 87.1037 11.3619 87.9572 11.4047C88.7836 11.3768 89.6012 11.5812 90.3172 11.9947C90.9016 12.3257 91.3056 12.9024 91.4172 13.5647C91.4172 13.7647 91.3272 13.8647 91.1472 13.8647H89.6672C89.5396 13.8723 89.4205 13.8008 89.3672 13.6847C89.2683 13.4479 89.0821 13.2581 88.8472 13.1547C88.5822 13.0161 88.2862 12.9472 87.9872 12.9547C87.694 12.9388 87.4016 12.9972 87.1372 13.1247C86.9465 13.1983 86.8198 13.3804 86.8172 13.5847C86.8303 13.8654 87.025 14.1048 87.2972 14.1747C87.6812 14.3194 88.0804 14.4201 88.4872 14.4747C88.9549 14.5363 89.4189 14.623 89.8772 14.7347C90.3254 14.8362 90.7329 15.0695 91.0472 15.4047C91.3868 15.7777 91.5632 16.271 91.5372 16.7747C91.5547 17.4779 91.2016 18.1386 90.6072 18.5147C89.86 18.9943 88.9845 19.235 88.0972 19.2047Z" fill="#696871"/>
<path d="M102.107 18.7047C102.119 18.7764 102.101 18.8497 102.057 18.9081C102.014 18.9664 101.949 19.0048 101.877 19.0147C101.512 19.1339 101.131 19.1979 100.747 19.2047C99.9742 19.2847 99.2156 18.9548 98.7471 18.3347C98.0407 18.942 97.1274 19.2536 96.1971 19.2047C95.3237 19.2449 94.4739 18.9145 93.8571 18.2947C93.2451 17.6458 92.9238 16.7756 92.9671 15.8847V11.9747C92.9671 11.7847 93.0571 11.6847 93.2471 11.6847H94.9271C95.1171 11.6847 95.2071 11.7847 95.2071 11.9747V15.5847C95.1889 16.0345 95.3426 16.4743 95.6371 16.8147C95.9345 17.1302 96.3539 17.3016 96.7871 17.2847C97.2298 17.3041 97.6619 17.1456 97.9871 16.8447C98.2952 16.5273 98.4581 16.0965 98.4371 15.6547V11.9747C98.4371 11.7847 98.5271 11.6847 98.7171 11.6847H100.417C100.607 11.6847 100.697 11.7847 100.697 11.9747V16.6847C100.697 17.0747 100.867 17.2647 101.197 17.2647C101.352 17.2707 101.507 17.2538 101.657 17.2147C101.734 17.1932 101.816 17.208 101.88 17.2548C101.945 17.3015 101.984 17.3752 101.987 17.4547L102.107 18.7047Z" fill="#696871"/>
<path d="M117.997 18.7047C118.015 18.7772 118 18.854 117.955 18.914C117.911 18.974 117.842 19.0109 117.767 19.0147C117.396 19.1356 117.008 19.1996 116.617 19.2047C116.023 19.2354 115.435 19.0664 114.947 18.7247C114.519 18.4274 114.268 17.9359 114.277 17.4147V15.0647C114.298 14.6163 114.148 14.1766 113.857 13.8347C113.573 13.5182 113.162 13.3457 112.737 13.3647C112.354 13.3502 111.985 13.5124 111.737 13.8047C111.473 14.1398 111.338 14.5585 111.357 14.9847V18.6747C111.357 18.8647 111.267 18.9647 111.077 18.9647H109.387C109.308 18.9746 109.228 18.9472 109.171 18.8905C109.115 18.8339 109.087 18.7542 109.097 18.6747V15.0647C109.119 14.6212 108.981 14.1846 108.707 13.8347C108.46 13.5371 108.094 13.3649 107.707 13.3647C107.295 13.3481 106.894 13.5081 106.607 13.8047C106.321 14.1291 106.174 14.5528 106.197 14.9847V18.6747C106.207 18.7542 106.18 18.8339 106.123 18.8905C106.066 18.9472 105.987 18.9746 105.907 18.9647H104.277C104.087 18.9647 103.997 18.8647 103.997 18.6747V13.9647C104.021 13.8021 103.967 13.6377 103.85 13.5215C103.734 13.4053 103.57 13.3508 103.407 13.3747H103.077C102.857 13.3747 102.747 13.2947 102.747 13.1347V11.9547C102.736 11.8042 102.832 11.6668 102.977 11.6247C103.323 11.499 103.689 11.438 104.057 11.4447C104.778 11.3833 105.47 11.7411 105.837 12.3647C106.519 11.7183 107.439 11.385 108.377 11.4447C109.291 11.4001 110.171 11.7938 110.747 12.5047C111.417 11.7763 112.379 11.3873 113.367 11.4447C114.25 11.4034 115.109 11.7334 115.737 12.3547C116.351 13.0024 116.673 13.8734 116.627 14.7647V16.6947C116.627 17.0747 116.797 17.2647 117.117 17.2647C117.272 17.2719 117.427 17.2551 117.577 17.2147C117.784 17.2147 117.894 17.2947 117.907 17.4547L117.997 18.7047Z" fill="#696871"/>
<path fill-rule="evenodd" clip-rule="evenodd" d="M0.737148 10.3847C2.25523 4.28306 7.73447 0 14.0221 0C20.3098 0 25.7891 4.28306 27.3071 10.3847H26.1071C24.0828 10.3549 22.1 10.9599 20.4371 12.1147C20.3412 12.1842 20.241 12.2477 20.1371 12.3047H19.9971C19.8933 12.2477 19.7931 12.1842 19.6971 12.1147C16.2657 9.80724 11.7786 9.80724 8.34715 12.1147C8.25118 12.1842 8.15099 12.2477 8.04715 12.3047H7.90715C7.80331 12.2477 7.70312 12.1842 7.60715 12.1147C5.94428 10.9599 3.96147 10.3549 1.93715 10.3847H0.737148ZM23.9471 16.6547C24.5632 16.175 25.3266 15.924 26.1071 15.9447H27.7171V12.7347H26.1071C24.7324 12.7181 23.389 13.146 22.2771 13.9547C20.9928 14.9016 19.2415 14.9016 17.9571 13.9547C15.6222 12.3293 12.5221 12.3293 10.1871 13.9547C8.9028 14.9016 7.15149 14.9016 5.86715 13.9547C4.74155 13.1357 3.37894 12.7072 1.98715 12.7347H0.327148V15.9447H1.93715C2.71766 15.924 3.48114 16.175 4.09715 16.6547C6.42809 18.2813 9.52621 18.2813 11.8571 16.6547C12.4739 16.1765 13.2369 15.9257 14.0171 15.9447C14.7979 15.9223 15.5619 16.1735 16.1771 16.6547C18.5121 18.2801 21.6122 18.2801 23.9471 16.6547ZM26.1071 21.6847C25.3266 21.664 24.5632 21.915 23.9471 22.3947C21.6122 24.0201 18.5121 24.0201 16.1771 22.3947C15.5619 21.9135 14.7979 21.6623 14.0171 21.6847C13.2369 21.6657 12.4739 21.9165 11.8571 22.3947C9.52621 24.0213 6.42809 24.0213 4.09715 22.3947C3.48114 21.915 2.71766 21.664 1.93715 21.6847H0.327148V18.4747H1.98715C3.37894 18.4472 4.74155 18.8757 5.86715 19.6947C7.15149 20.6416 8.9028 20.6416 10.1871 19.6947C12.5221 18.0693 15.6222 18.0693 17.9571 19.6947C19.2415 20.6416 20.9928 20.6416 22.2771 19.6947C23.389 18.886 24.7324 18.4581 26.1071 18.4747H27.7171V21.6847H26.1071Z" fill="#696871"/>
</svg>
