<svg width="101" height="48" viewBox="0 0 101 48" fill="none" xmlns="http://www.w3.org/2000/svg">
<path d="M0.137085 28.61H3.13708V43.32H0.137085V28.61Z" fill="#696871"/>
<path fill-rule="evenodd" clip-rule="evenodd" d="M8.1666 33.3394C6.17151 34.1691 4.87303 36.1193 4.87707 38.28C4.86354 39.6995 5.42212 41.0646 6.42681 42.0674C7.4315 43.0702 8.79765 43.6262 10.2171 43.61C12.3778 43.61 14.3256 42.3079 15.1515 40.3112C15.9775 38.3146 15.5188 36.017 13.9895 34.4905C12.4602 32.9641 10.1617 32.5097 8.1666 33.3394ZM10.1781 36.0204C11.4513 35.9986 12.5041 37.0071 12.5371 38.28C12.5708 38.9105 12.3393 39.5263 11.8986 39.9784C11.4579 40.4305 10.8482 40.6777 10.2171 40.66C8.94368 40.6596 7.90862 39.6329 7.89793 38.3595C7.88723 37.0862 8.90489 36.0422 10.1781 36.0204Z" fill="#696871"/>
<path fill-rule="evenodd" clip-rule="evenodd" d="M27.6171 42.82V33.24L24.6671 33.27V34.27C23.9487 33.3939 22.8589 32.9083 21.7271 32.96C18.8994 32.96 16.6071 35.2523 16.6071 38.08C16.6071 40.9077 18.8994 43.2 21.7271 43.2C22.8598 43.2566 23.9517 42.77 24.6671 41.89V42.82C24.7252 43.438 24.493 44.048 24.0387 44.471C23.5843 44.894 22.9594 45.082 22.3471 44.98C21.4077 45.0577 20.516 44.5544 20.0971 43.71L17.5171 45.2C18.5255 46.8415 20.3658 47.7829 22.2871 47.64C24.9671 47.64 27.6171 46.21 27.6171 42.82ZM23.2322 35.7557C24.14 36.1651 24.7079 37.085 24.6671 38.08C24.6856 38.7238 24.431 39.3454 23.9661 39.7912C23.5013 40.2371 22.8695 40.4655 22.2271 40.42C21.2312 40.4192 20.3359 39.8133 19.9648 38.8892C19.5938 37.9651 19.8215 36.9082 20.5402 36.2189C21.2589 35.5297 22.3244 35.3463 23.2322 35.7557Z" fill="#696871"/>
<path fill-rule="evenodd" clip-rule="evenodd" d="M32.6366 33.3394C30.6415 34.1691 29.3431 36.1193 29.3471 38.28C29.3336 39.6995 29.8922 41.0646 30.8968 42.0674C31.9015 43.0702 33.2677 43.6262 34.6871 43.61C36.8478 43.61 38.7956 42.3079 39.6216 40.3112C40.4475 38.3146 39.9888 36.017 38.4595 34.4905C36.9302 32.9641 34.6317 32.5097 32.6366 33.3394ZM34.6481 36.0204C35.9213 35.9986 36.9742 37.0071 37.0071 38.28H36.9871C37.0206 38.9069 36.7917 39.5195 36.3555 39.971C35.9192 40.4224 35.3148 40.672 34.6871 40.66C33.4137 40.6596 32.3787 39.6329 32.368 38.3595C32.3573 37.0862 33.3749 36.0422 34.6481 36.0204Z" fill="#696871"/>
<path fill-rule="evenodd" clip-rule="evenodd" d="M43.2371 28.72C42.232 28.72 41.4171 29.5348 41.4171 30.54C41.4226 31.5429 42.2342 32.3545 43.2371 32.36C44.2423 32.36 45.0571 31.5451 45.0571 30.54C45.0571 29.5348 44.2423 28.72 43.2371 28.72ZM44.7271 33.24H41.7271V43.32H44.7271V33.24Z" fill="#696871"/>
<path fill-rule="evenodd" clip-rule="evenodd" d="M56.5111 41.9458C57.4141 40.9452 57.8805 39.6258 57.8071 38.28C57.8778 36.9359 57.4101 35.619 56.5074 34.6206C55.6047 33.6222 54.3415 33.0246 52.9971 32.96C51.8643 32.9056 50.7656 33.356 49.9971 34.19V33.24H46.9971V47.38H49.9971V42.38C50.7656 43.2139 51.8643 43.6644 52.9971 43.61C54.3433 43.5454 55.6081 42.9464 56.5111 41.9458ZM52.3876 35.9408C53.6972 35.9298 54.7739 36.9707 54.8071 38.28H54.7871C54.8346 38.9423 54.5936 39.5929 54.1259 40.0643C53.6583 40.5358 53.0098 40.7821 52.3471 40.74C51.0378 40.7068 49.9969 39.6301 50.0079 38.3205C50.019 37.0108 51.0779 35.9519 52.3876 35.9408Z" fill="#696871"/>
<path d="M67.1471 40.3C67.1471 42.62 65.1471 43.61 62.9471 43.61C61.1491 43.7692 59.435 42.8191 58.6171 41.21L61.2371 39.72C61.4562 40.4695 62.1681 40.9649 62.9471 40.91C63.6771 40.91 64.0371 40.68 64.0371 40.28C64.0371 39.17 59.0371 39.76 59.0371 36.28C59.0371 34.08 60.8971 32.97 63.0371 32.97C64.6452 32.9211 66.1534 33.748 66.9771 35.13L64.3471 36.51C64.1097 35.9704 63.5765 35.6215 62.9871 35.62C62.4671 35.62 62.1471 35.82 62.1471 36.19C62.1871 37.34 67.1471 36.57 67.1471 40.3Z" fill="#696871"/>
<path d="M78.1871 33.24V43.32H75.1871V42.38C74.4792 43.2272 73.4086 43.6844 72.3071 43.61C70.3071 43.61 68.5371 42.16 68.5371 39.43V33.24H71.5371V38.99C71.4837 39.4862 71.6564 39.9802 72.0073 40.335C72.3583 40.6899 72.8503 40.868 73.3471 40.82C74.4471 40.82 75.2171 40.18 75.2171 38.75V33.24H78.1871Z" fill="#696871"/>
<path d="M95.5271 37.14V43.32H92.5271V37.4C92.5271 36.4 92.0371 35.74 91.0771 35.74C90.1171 35.74 89.4971 36.45 89.4971 37.64V43.32H86.4971V37.4C86.4971 36.4 86.0171 35.74 85.0471 35.74C84.0771 35.74 83.4771 36.45 83.4771 37.64V43.32H80.4771V33.24H83.4771V34.17C84.1141 33.3355 85.1302 32.8801 86.1771 32.96C87.2296 32.9089 88.2317 33.4138 88.8171 34.29C89.4973 33.3745 90.5999 32.8723 91.7371 32.96C94.0171 32.96 95.5271 34.62 95.5271 37.14Z" fill="#696871"/>
<path d="M98.0871 33.18C99.3242 33.18 100.327 32.1771 100.327 30.94C100.327 29.7029 99.3242 28.7 98.0871 28.7C96.85 28.7 95.8471 29.7029 95.8471 30.94C95.8471 32.1771 96.85 33.18 98.0871 33.18Z" fill="#696871"/>
<path d="M34.0871 20.98C39.8806 20.98 44.5771 16.2835 44.5771 10.49C44.5771 4.69653 39.8806 0 34.0871 0C28.2936 0 23.5971 4.69653 23.5971 10.49C23.5971 16.2835 28.2936 20.98 34.0871 20.98Z" fill="#696871"/>
<path d="M57.5371 20.98C63.3305 20.98 68.0271 16.2835 68.0271 10.49C68.0271 4.69653 63.3305 0 57.5371 0C51.7436 0 47.0471 4.69653 47.0471 10.49C47.0471 16.2835 51.7436 20.98 57.5371 20.98Z" fill="#696871"/>
<rect x="0.157104" width="20.97" height="20.97" fill="#696871"/>
</svg>
