<svg width="200" height="40" viewBox="0 0 200 40" fill="none" xmlns="http://www.w3.org/2000/svg">
<path d="M30.004 17.5548C28.8727 18.7128 28.3074 20.3233 28.4617 21.9484L28.4352 21.9214C28.5939 23.8337 27.9158 25.72 26.5819 27.077C25.248 28.4341 23.3939 29.1239 21.5141 28.9625L21.5407 28.9895C19.2647 28.7739 17.1003 30.0334 16.129 32.1384C15.1577 34.2435 15.5881 36.7421 17.2052 38.3857C18.8222 40.0293 21.2786 40.4649 23.3469 39.4749C25.4152 38.4848 26.6512 36.2817 26.4373 33.9665L26.4653 33.9935C26.3067 32.0812 26.9847 30.1949 28.3186 28.8379C29.6525 27.4808 31.5067 26.791 33.3864 26.9524L33.3584 26.9254C35.8597 27.1543 38.1873 25.6027 38.9795 23.1781C39.7718 20.7536 38.8207 18.0931 36.6825 16.7529C34.5444 15.4126 31.7809 15.7447 30.0084 17.5548H30.004Z" fill="#5454D4"/>
<path d="M19.127 25.4524L19.0989 25.4254C20.6973 25.5893 22.2835 25.0143 23.4199 23.859C24.5563 22.7038 25.1227 21.0906 24.9628 19.4643L24.9909 19.4913C24.8322 17.579 25.5102 15.6927 26.8441 14.3357C28.1781 12.9786 30.0322 12.2888 31.9119 12.4503L31.8839 12.4233C34.1601 12.6407 36.3258 11.3826 37.2986 9.27789C38.2713 7.17313 37.8422 4.6738 36.2256 3.02921C34.6091 1.38461 32.1523 0.948018 30.0835 1.93765C28.0146 2.92729 26.7779 5.13058 26.9917 7.4462L26.9651 7.4177C27.1244 9.33019 26.4465 11.2168 25.1124 12.5739C23.7784 13.9311 21.924 14.6208 20.0441 14.4588L20.0706 14.4873C18.4722 14.3234 16.886 14.8984 15.7497 16.0537C14.6133 17.2089 14.0469 18.8221 14.2067 20.4484L14.1802 20.4214C14.3383 22.3336 13.6601 24.2195 12.3263 25.5764C10.9925 26.9334 9.13873 27.6233 7.2591 27.4624L7.28564 27.4894C5.00949 27.272 2.84375 28.5301 1.87098 30.6348C0.898214 32.7396 1.32737 35.2389 2.94393 36.8835C4.56049 38.5281 7.01723 38.9647 9.08611 37.975C11.155 36.9854 12.3916 34.7821 12.1779 32.4665L12.2059 32.4935C12.0472 30.5811 12.7253 28.6949 14.0592 27.3378C15.3931 25.9808 17.2472 25.291 19.127 25.4524Z" fill="#FF7143"/>
<path d="M9.24521 22.4419C10.3767 21.2841 10.9416 19.6733 10.786 18.0483L10.814 18.0753C10.6552 16.1624 11.3337 14.2756 12.6683 12.9184C14.0029 11.5613 15.8578 10.8719 17.738 11.0342L17.71 11.0072C19.9854 11.2241 22.1501 9.96613 23.1223 7.86205C24.0944 5.75796 23.6653 3.25961 22.0493 1.61563C20.4334 -0.0283556 17.9776 -0.464926 15.9094 0.524107C13.8412 1.51314 12.6046 3.71537 12.8178 6.03018L12.7913 6.00318C12.9499 7.91553 12.2719 9.8018 10.938 11.1588C9.60406 12.5159 7.74995 13.2057 5.87019 13.0443L5.89673 13.0713C3.39548 12.8431 1.06844 14.3951 0.27664 16.8196C-0.515163 19.2441 0.436251 21.9043 2.57443 23.2442C4.71261 24.5842 7.47591 24.252 9.24816 22.4419H9.24521Z" fill="#5454D4"/>
<path d="M54.9193 7.4807H59.2983V29.1605H54.9193V7.4807Z" fill="#19191B"/>
<path fill-rule="evenodd" clip-rule="evenodd" d="M66.5317 14.443C63.6418 15.6711 61.7649 18.5507 61.7774 21.7369C61.7622 23.8261 62.5734 25.8338 64.0285 27.3082C65.4836 28.7825 67.4603 29.5998 69.5138 29.576C72.6458 29.5759 75.4687 27.6549 76.6643 24.71C77.8599 21.7651 77.1923 18.3773 74.9733 16.1289C72.7543 13.8804 69.4216 13.2148 66.5317 14.443ZM69.4515 18.4149C71.2941 18.3803 72.82 19.8627 72.8709 21.7369C72.9207 22.666 72.5862 23.5739 71.9485 24.2409C71.3108 24.9079 70.428 25.2732 69.5137 25.2484C67.6708 25.2485 66.172 23.7378 66.1549 21.863C66.1378 19.9882 67.6089 18.4495 69.4515 18.4149Z" fill="#19191B"/>
<path fill-rule="evenodd" clip-rule="evenodd" d="M94.7031 28.4119V14.3118L90.4405 14.3088V15.8238C89.4006 14.5294 87.8191 13.8131 86.1778 13.8933C82.174 14.0217 78.9937 17.3609 78.9937 21.4361C78.9937 25.5114 82.174 28.8505 86.1778 28.9789C87.8191 29.0591 89.4006 28.3428 90.4405 27.0484V28.4059C90.5138 29.3016 90.183 30.1826 89.5415 30.8005C88.9 31.4185 88.0172 31.7063 87.1421 31.583C85.7579 31.7267 84.4314 30.9811 83.8143 29.7125L80.078 31.91C81.5398 34.3329 84.2095 35.7222 86.9961 35.51C90.8784 35.51 94.7031 33.401 94.7031 28.4119ZM88.3609 18.0066C89.6782 18.611 90.5019 19.9695 90.4417 21.4384C90.469 22.3868 90.1008 23.3028 89.4281 23.96C88.7554 24.6172 87.8409 24.9545 86.9105 24.8884C85.4654 24.8902 84.1645 23.9979 83.6242 22.6344C83.0839 21.2708 83.4129 19.7101 84.4552 18.6918C85.4974 17.6735 87.0436 17.4022 88.3609 18.0066Z" fill="#19191B"/>
<path fill-rule="evenodd" clip-rule="evenodd" d="M101.937 14.443C99.0472 15.6711 97.1703 18.5507 97.1828 21.7369C97.1677 23.8261 97.9789 25.8338 99.4339 27.3082C100.889 28.7825 102.866 29.5998 104.919 29.576C108.051 29.5759 110.874 27.6549 112.07 24.71C113.265 21.7651 112.598 18.3773 110.379 16.1289C108.16 13.8804 104.827 13.2148 101.937 14.443ZM104.857 18.4149C106.7 18.3803 108.225 19.8627 108.276 21.7369C108.326 22.666 107.992 23.5739 107.354 24.2409C106.716 24.9079 105.833 25.2732 104.919 25.2484C103.076 25.2485 101.577 23.7378 101.56 21.863C101.543 19.9882 103.014 18.4495 104.857 18.4149Z" fill="#19191B"/>
<path fill-rule="evenodd" clip-rule="evenodd" d="M116.319 7.86268C115.338 8.27641 114.698 9.2511 114.698 10.3322C114.712 11.8024 115.88 12.9906 117.325 13.0053C118.388 13.0053 119.346 12.354 119.752 11.3552C120.159 10.3563 119.934 9.2066 119.183 8.44212C118.431 7.67764 117.301 7.44894 116.319 7.86268ZM119.52 14.3118H115.14L115.134 29.162H119.52V14.3118Z" fill="#19191B"/>
<path fill-rule="evenodd" clip-rule="evenodd" d="M136.542 27.1324C137.852 25.661 138.531 23.7191 138.429 21.7369C138.532 19.7543 137.853 17.8118 136.543 16.3399C135.234 14.8681 133.401 13.9886 131.452 13.8963C129.809 13.8051 128.212 14.4698 127.103 15.7068V14.3118H122.724V35.1005H127.103V27.7639C128.212 29.0018 129.808 29.6672 131.452 29.576C133.401 29.4832 135.233 28.6038 136.542 27.1324ZM130.519 18.2918C132.426 18.2594 134.002 19.7971 134.049 21.7369C134.115 22.7008 133.774 23.6477 133.111 24.3395C132.448 25.0313 131.526 25.4024 130.577 25.3594C128.67 25.3596 127.119 23.7954 127.103 21.8551C127.087 19.9149 128.612 18.3243 130.519 18.2918Z" fill="#19191B"/>
<path d="M151.943 24.7054C151.943 28.1209 149.025 29.576 145.872 29.576C143.266 29.8161 140.779 28.416 139.595 26.0419L143.389 23.8444C143.705 24.9496 144.737 25.6798 145.866 25.5964C146.916 25.5964 147.442 25.2694 147.442 24.6769C147.442 23.0419 140.26 23.9044 140.26 18.7668C140.26 15.5283 142.946 13.8963 145.983 13.8963C148.307 13.8214 150.488 15.0386 151.674 17.0733L147.938 19.1223C147.603 18.3271 146.833 17.8127 145.983 17.8158C145.223 17.8158 144.756 18.1158 144.756 18.6468C144.762 20.3404 151.943 19.2108 151.943 24.7054Z" fill="#19191B"/>
<path d="M167.938 14.3118V29.162H163.559V27.7654C162.534 29.0155 160.982 29.6894 159.386 29.5775C156.437 29.5775 153.931 27.4399 153.931 23.4274V14.3118H158.31V22.7749C158.236 23.4907 158.475 24.2035 158.964 24.7237C159.453 25.2438 160.142 25.5186 160.849 25.4749C162.454 25.4749 163.563 24.5254 163.563 22.4164V14.3163L167.938 14.3118Z" fill="#19191B"/>
<path d="M193.047 20.0433V29.1604H188.668V20.4288C188.668 18.9438 187.968 17.9943 186.567 17.9943C185.108 17.9943 184.289 19.0338 184.289 20.7858V29.1604H179.912V20.4288C179.912 18.9438 179.211 17.9943 177.809 17.9943C176.349 17.9943 175.532 19.0338 175.532 20.7858V29.1604H171.153V14.3103H175.532V15.6753C176.455 14.4448 177.928 13.7744 179.444 13.8948C180.968 13.8189 182.42 14.5627 183.267 15.8538C184.254 14.504 185.852 13.7642 187.501 13.8948C190.852 13.8963 193.047 16.3308 193.047 20.0433Z" fill="#19191B"/>
<path d="M196.751 14.2203C198.546 14.2203 200 12.7401 200 10.9142C200 9.08836 198.546 7.6082 196.751 7.6082C194.956 7.6082 193.501 9.08836 193.501 10.9142C193.501 12.7401 194.956 14.2203 196.751 14.2203Z" fill="#19191B"/>
</svg>
