<svg width="125" height="29" viewBox="0 0 125 29" fill="none" xmlns="http://www.w3.org/2000/svg">
<path d="M27.2971 9.95001C27.6571 9.95001 27.7771 10.08 27.7771 10.43V18.35H31.8471C32.1971 18.35 32.3271 18.48 32.3271 18.83V19.53C32.3271 19.88 32.1971 20.01 31.8471 20.01H26.4871C26.1371 20.01 25.9971 19.88 25.9971 19.53V10.43C25.9971 10.08 26.1371 9.95001 26.4871 9.95001H27.2971Z" fill="#696871"/>
<path fill-rule="evenodd" clip-rule="evenodd" d="M39.8771 9.73999C37.3371 9.73999 35.8771 11.13 35.8771 13.44V16.52C35.8771 18.83 37.3471 20.22 39.8771 20.22C42.4071 20.22 43.8771 18.83 43.8771 16.52V13.44C43.8771 11.13 42.4171 9.73999 39.8771 9.73999ZM39.9271 11.44C41.3871 11.44 42.1971 12.14 42.1971 13.44V16.54C42.1971 17.82 41.3871 18.54 39.9271 18.54C38.4671 18.54 37.6671 17.85 37.6671 16.54V13.44C37.6671 12.15 38.4671 11.44 39.9271 11.44Z" fill="#696871"/>
<path d="M55.7871 14.5C56.1771 14.5 56.2671 14.63 56.2671 14.98V16.88C56.2885 17.7864 55.8989 18.6539 55.2071 19.24C54.3588 19.9155 53.2892 20.2507 52.2071 20.18C49.6171 20.18 48.2071 18.79 48.2071 16.48V13.38C48.2071 11.1 49.6671 9.70001 52.2071 9.70001C54.2071 9.70001 55.5071 10.49 56.0571 12.07C56.1195 12.1904 56.1214 12.3331 56.0624 12.4552C56.0033 12.5772 55.8902 12.6642 55.7571 12.69L54.9771 12.96C54.6371 13.08 54.4971 13.01 54.3771 12.66C54.0363 11.7813 53.1426 11.2459 52.2071 11.36C50.7371 11.36 49.9371 12.07 49.9371 13.36V16.54C49.9371 17.85 50.7471 18.54 52.2071 18.54C53.6671 18.54 54.5671 17.87 54.5671 16.89V16.15H52.3971C52.0371 16.15 51.9071 16.01 51.9071 15.66V14.98C51.9071 14.63 52.0371 14.5 52.3971 14.5H55.7871Z" fill="#696871"/>
<path fill-rule="evenodd" clip-rule="evenodd" d="M64.3971 9.73999C61.8571 9.73999 60.3971 11.13 60.3971 13.44V16.52C60.3971 18.83 61.8671 20.22 64.3971 20.22C66.9271 20.22 68.3971 18.83 68.3971 16.52V13.44C68.3971 11.13 66.9371 9.73999 64.3971 9.73999ZM64.4471 11.44C65.8971 11.44 66.7071 12.14 66.7071 13.44V16.54C66.7071 17.82 65.9071 18.54 64.4471 18.54C62.9871 18.54 62.1771 17.85 62.1771 16.54V13.44C62.1771 12.15 62.9971 11.44 64.4471 11.44Z" fill="#696871"/>
<path d="M73.1071 10.24C73.1071 10.02 73.1771 9.95001 73.3971 9.95001H73.8571C74.0771 9.95001 74.1271 10.02 74.1271 10.24V19.72C74.1271 19.94 74.1271 20.01 73.8571 20.01H73.3971C73.1771 20.01 73.1071 19.94 73.1071 19.72V10.24Z" fill="#696871"/>
<path fill-rule="evenodd" clip-rule="evenodd" d="M86.3771 13.09C86.3771 11.3558 84.9713 9.95001 83.2371 9.95001H79.5071C79.2971 9.95001 79.2171 10.02 79.2171 10.24V19.72C79.2171 19.94 79.2971 20.01 79.5071 20.01H79.9771C80.1871 20.01 80.2371 19.94 80.2371 19.72V16.23H83.2371C84.9713 16.23 86.3771 14.8242 86.3771 13.09ZM85.035 14.15C84.6456 14.8245 83.9259 15.24 83.1471 15.24H80.1471V10.88H83.1471C83.9259 10.88 84.6456 11.2955 85.035 11.97C85.4245 12.6445 85.4245 13.4755 85.035 14.15Z" fill="#696871"/>
<path d="M94.1871 9.75C95.7725 9.57503 97.2849 10.4613 97.9071 11.93C97.9871 12.09 97.9071 12.22 97.7471 12.3L97.3071 12.5C97.1271 12.57 97.0571 12.56 96.9471 12.37C96.4822 11.2808 95.366 10.6175 94.1871 10.73C92.4971 10.73 91.5771 11.4 91.5771 12.6C91.5568 13.3583 92.0988 14.0155 92.8471 14.14C93.3849 14.3154 93.9426 14.4229 94.5071 14.46C95.1904 14.4964 95.8645 14.6346 96.5071 14.87C97.5224 15.1913 98.1735 16.1804 98.0671 17.24C98.0671 19.11 96.7071 20.24 94.2071 20.24C92.5174 20.4333 90.922 19.421 90.3771 17.81C90.3414 17.7378 90.3397 17.6535 90.3726 17.58C90.4055 17.5065 90.4695 17.4515 90.5471 17.43L90.9871 17.27C91.0572 17.2414 91.136 17.2435 91.2045 17.2758C91.2729 17.3081 91.3247 17.3677 91.3471 17.44C91.8061 18.5993 92.9633 19.3276 94.2071 19.24C96.0971 19.24 97.0271 18.58 97.0271 17.24C97.0634 16.5126 96.5686 15.8655 95.8571 15.71C95.3397 15.5557 94.8061 15.4617 94.2671 15.43L93.1871 15.29C92.8491 15.2183 92.5153 15.1281 92.1871 15.02C91.8629 14.9221 91.5607 14.7625 91.2971 14.55C90.7601 14.0637 90.467 13.3639 90.4971 12.64C90.5671 10.89 91.8771 9.75 94.1871 9.75Z" fill="#696871"/>
<path d="M103.457 16.59C103.545 18.058 104.761 19.2034 106.232 19.2034C107.703 19.2034 108.919 18.058 109.007 16.59V10.24C109.007 10.02 109.077 9.95001 109.297 9.95001H109.757C109.977 9.95001 110.047 10.02 110.047 10.24V16.58C110.047 18.85 108.707 20.22 106.237 20.22C103.767 20.22 102.427 18.85 102.427 16.58V10.24C102.427 10.02 102.497 9.95001 102.707 9.95001H103.177C103.387 9.95001 103.457 10.02 103.457 10.24V16.59Z" fill="#696871"/>
<path d="M123.847 9.94998C124.067 9.94998 124.137 10.02 124.137 10.24V19.72C124.137 19.94 124.067 20.01 123.847 20.01H123.427C123.217 20.01 123.147 19.94 123.147 19.72V13.95C123.147 13.1104 123.204 12.2718 123.317 11.44H123.257C122.945 12.2007 122.58 12.9391 122.167 13.65L120.017 17.44C119.963 17.5746 119.832 17.6621 119.687 17.66H119.407C119.26 17.6607 119.127 17.5743 119.067 17.44L116.887 13.61C116.5 12.9092 116.166 12.1805 115.887 11.43H115.827C115.93 12.2695 115.983 13.1143 115.987 13.96V19.72C115.987 19.94 115.917 20.01 115.697 20.01H115.307C115.087 20.01 115.017 19.94 115.017 19.72V10.24C115.017 10.02 115.087 9.94998 115.307 9.94998H115.667C115.836 9.93427 115.996 10.0264 116.067 10.18L119.567 16.4L123.047 10.24C123.157 10.03 123.217 9.99998 123.437 9.99998L123.847 9.94998Z" fill="#696871"/>
<path fill-rule="evenodd" clip-rule="evenodd" d="M2.8771 0.93V21.24C2.8771 21.4893 2.77806 21.7284 2.60178 21.9047C2.4255 22.081 2.1864 22.18 1.9371 22.18H1.7171C1.19795 22.18 0.7771 21.7591 0.7771 21.24V0.93C0.782581 0.414762 1.20183 -2.91566e-05 1.7171 1.53718e-09H1.9371C2.45237 -2.91566e-05 2.87162 0.414762 2.8771 0.93ZM14.4074 13.8046C14.6059 13.6156 14.8733 13.5163 15.1471 13.53L15.0971 13.55C15.3881 13.5203 15.6775 13.6195 15.8891 13.8215C16.1007 14.0234 16.2132 14.3079 16.1971 14.6V20.1C16.1971 20.6799 15.727 21.15 15.1471 21.15C14.5672 21.15 14.0971 20.6799 14.0971 20.1V14.53C14.0968 14.2559 14.2089 13.9937 14.4074 13.8046ZM17.4071 16.7C17.4071 16.1477 17.8548 15.7 18.4071 15.7C18.6965 15.6734 18.9831 15.774 19.1923 15.9756C19.4016 16.1772 19.5128 16.4599 19.4971 16.75V17.96C19.4971 18.5371 19.0292 19.005 18.4521 19.005C17.875 19.005 17.4071 18.5371 17.4071 17.96V16.7ZM9.5071 25.02V17.79C9.19439 18.0277 8.80974 18.1512 8.4171 18.14C8.05693 18.1311 7.70806 18.0125 7.4171 17.8V25.02C7.4171 25.5971 7.88496 26.065 8.4621 26.065C9.03924 26.065 9.5071 25.5971 9.5071 25.02ZM5.1471 20.53C4.78727 20.5192 4.43893 20.4008 4.1471 20.19V27.44C4.1471 28.0199 4.6172 28.49 5.1971 28.49C5.777 28.49 6.2471 28.0199 6.2471 27.44V20.24C5.92055 20.4511 5.53526 20.5526 5.1471 20.53ZM11.8271 15.67C11.4504 15.6674 11.0838 15.5487 10.7771 15.33V22.6C10.7771 23.1799 11.2472 23.65 11.8271 23.65C12.407 23.65 12.8771 23.1799 12.8771 22.6V15.34C12.5598 15.5763 12.1726 15.6995 11.7771 15.69L11.8271 15.67ZM5.2571 19.76H5.0371C4.51795 19.76 4.0971 19.3391 4.0971 18.82V3.35C4.10258 2.83476 4.52183 2.41997 5.0371 2.42H5.2571C5.77237 2.41997 6.19162 2.83476 6.1971 3.35V18.84C6.1971 19.3591 5.77625 19.78 5.2571 19.78V19.76ZM8.3371 17.38H8.5671C9.08072 17.38 9.4971 16.9636 9.4971 16.45V5.75C9.49713 5.23473 9.08234 4.81548 8.5671 4.81H8.3371C8.08871 4.80999 7.85063 4.90934 7.67593 5.08592C7.50123 5.26249 7.40443 5.50162 7.4071 5.75V16.45C7.4071 16.9636 7.82347 17.38 8.3371 17.38ZM11.8771 14.93H11.6671C11.1518 14.93 10.7326 14.5152 10.7271 14V8.24C10.7105 7.98047 10.8022 7.72567 10.9803 7.53618C11.1584 7.3467 11.407 7.23947 11.6671 7.24H11.8871C12.4062 7.24 12.8271 7.66085 12.8271 8.18V13.98C12.8298 14.231 12.7319 14.4727 12.5553 14.6512C12.3788 14.8296 12.1381 14.93 11.8871 14.93H11.8771ZM14.9771 12.78H15.1971H15.2071C15.7223 12.7745 16.1371 12.3553 16.1371 11.84V10.35C16.1316 9.83476 15.7124 9.41997 15.1971 9.42H14.9771C14.4618 9.41997 14.0426 9.83476 14.0371 10.35V11.84C14.0371 12.3591 14.458 12.78 14.9771 12.78Z" fill="#696871"/>
</svg>
